<svg width="168" height="38" viewBox="0 0 168 38" fill="none" xmlns="http://www.w3.org/2000/svg">
<path d="M23.6504 3.46289C24.2715 3.46289 24.8691 3.7207 25.4434 4.23633C26.0293 4.75195 26.3223 5.32617 26.3223 5.95898C26.3223 6.5918 26.1641 7.41797 25.8477 8.4375C25.5312 9.44531 25.0859 10.5234 24.5117 11.6719C23.9492 12.8086 23.2578 13.9922 22.4375 15.2227C21.6289 16.4414 20.7441 17.6309 19.7832 18.791C18.834 19.9395 17.7852 21.0352 16.6367 22.0781C15.5 23.1094 14.3457 24.0117 13.1738 24.7852C10.6191 26.4727 8.12305 27.3164 5.68555 27.3164C4.8418 27.3164 4.0918 27.0938 3.43555 26.6484C2.7793 26.2031 2.26953 25.7637 1.90625 25.3301C1.07422 24.334 0.658203 22.957 0.658203 21.1992C0.658203 19.4297 1.23828 17.3555 2.39844 14.9766C3.57031 12.5977 5.16406 10.3535 7.17969 8.24414C9.20703 6.12305 11.4746 4.38867 13.9824 3.04102C16.4902 1.68164 18.875 1.00195 21.1367 1.00195C21.582 1.00195 22.0039 1.10156 22.4023 1.30078C22.8008 1.5 23 1.73438 23 2.00391C23 2.26172 22.9355 2.47852 22.8066 2.6543C22.6777 2.81836 22.5547 3 22.4375 3.19922C22.3203 3.38672 22.2207 3.52148 22.1387 3.60352C22.5254 3.50977 23.0293 3.46289 23.6504 3.46289ZM17.0938 11.584C17.0938 11.8184 17.0117 11.9355 16.8477 11.9355C16.6836 11.9355 16.3438 11.6543 15.8281 11.0918C15.3125 10.5176 15.0547 10.0371 15.0547 9.65039C15.0547 8.74805 15.6582 7.72266 16.8652 6.57422C18.084 5.42578 19.4375 4.55273 20.9258 3.95508C19.2852 4.04883 17.3809 4.74609 15.2129 6.04688C13.0449 7.34766 11.1465 8.91797 9.51758 10.7578C7.88867 12.5859 6.57031 14.4961 5.5625 16.4883C4.56641 18.4805 4.06836 20.0977 4.06836 21.3398C4.06836 22.1016 4.23828 22.7578 4.57812 23.3086C4.91797 23.8477 5.49219 24.1172 6.30078 24.1172C7.12109 24.1172 8.10547 23.8359 9.25391 23.2734C10.4023 22.7109 11.5215 21.9727 12.6113 21.0586C16.3613 17.8828 19.291 14.3555 21.4004 10.4766C22.2559 8.88281 22.6836 7.78125 22.6836 7.17188C22.6836 6.92578 22.6016 6.80273 22.4375 6.80273C21.957 6.80273 21.2773 7.11328 20.3984 7.73438C19.5195 8.34375 18.7402 9.01758 18.0605 9.75586C17.3809 10.4941 17.041 11.0273 17.041 11.3555L17.0938 11.584ZM27.4648 17.4199C30.2305 14.2793 32.5859 12.709 34.5312 12.709C35.0117 12.709 35.4043 12.8555 35.709 13.1484C36.0254 13.4297 36.1836 13.7988 36.1836 14.2559C36.1836 14.7129 35.8555 15.4805 35.1992 16.5586C34.5547 17.625 33.957 18.5273 33.4062 19.2656C33.1133 19.6406 32.7793 19.8281 32.4043 19.8281C32.041 19.8281 31.7539 19.6934 31.543 19.4238C31.3438 19.1543 31.2441 18.8379 31.2441 18.4746C31.2441 17.666 31.6777 16.752 32.5449 15.7324L32.5098 15.6973C32.123 15.7324 31.1621 16.4941 29.627 17.9824C28.1035 19.4707 26.8027 20.8066 25.7246 21.9902C24.6582 23.1621 23.498 24.5918 22.2441 26.2793C21.8809 26.7832 21.5703 27.0352 21.3125 27.0352C21.0664 27.0352 20.7383 26.959 20.3281 26.8066C19.9062 26.6426 19.6543 26.5254 19.5723 26.4551C19.4785 26.3848 19.4316 26.2676 19.4316 26.1035C19.4316 25.9395 19.4785 25.752 19.5723 25.541C19.666 25.3184 19.8418 25.0078 20.0996 24.6094C20.3457 24.2109 20.7207 23.5664 21.2246 22.6758C21.7402 21.7852 22.5371 20.4375 23.6152 18.6328C24.6934 16.8281 25.3379 15.7383 25.5488 15.3633C25.9941 14.5898 26.3574 14.0273 26.6387 13.6758C27.166 13.0078 28.0566 12.6738 29.3105 12.6738C29.5918 12.6738 29.7324 12.8496 29.7324 13.2012C29.7324 13.752 29.2227 14.7891 28.2031 16.3125L27.4648 17.4199ZM39.7695 15.3281C40.9062 14.543 42.0195 13.9395 43.1094 13.5176C44.1992 13.0957 45.1426 12.8848 45.9395 12.8848C46.7363 12.8848 47.2461 13.1133 47.4688 13.5703C47.9258 13.043 48.4941 12.7617 49.1738 12.7266C49.373 12.7148 49.6191 12.709 49.9121 12.709C50.2051 12.709 50.3867 12.75 50.457 12.832C50.5273 12.9023 50.5918 13.043 50.6504 13.2539C50.709 13.4648 50.7441 13.582 50.7559 13.6055C50.7676 13.6289 50.7734 13.6699 50.7734 13.7285C50.7734 13.7754 50.7441 13.8398 50.6855 13.9219C50.627 13.9922 50.5566 14.0625 50.4746 14.1328C50.4043 14.2031 50.3633 14.2441 50.3516 14.2559C47.7617 17.9707 45.1133 22.207 42.4062 26.9648C45.1953 24.4922 47.6914 22.7168 49.8945 21.6387C50.0352 21.5684 50.1699 21.5332 50.2988 21.5332C50.4863 21.5332 50.6094 21.6562 50.668 21.9023C50.7266 22.1367 50.7559 22.4766 50.7559 22.9219C50.7559 23.3672 50.7266 23.6426 50.668 23.748C50.6211 23.8535 50.3516 24.0645 49.8594 24.3809C49.3672 24.6973 48.7285 25.1074 47.9434 25.6113C47.1582 26.1152 46.3262 26.6719 45.4473 27.2812C43.3379 28.7461 41.6035 30.2871 40.2441 31.9043C38.4863 34.0254 37.2266 35.7363 36.4648 37.0371C36.1836 37.541 35.709 37.793 35.041 37.793C33.7168 37.793 33.0547 37.166 33.0547 35.9121C33.0547 34.6348 33.6816 33.3281 34.9355 31.9922C35.873 30.9961 36.7344 30.1816 37.5195 29.5488C38.3047 28.916 38.7324 28.5586 38.8027 28.4766C39.6699 27.1758 40.8477 25.3301 42.3359 22.9395C41.0703 24.2637 39.8398 25.3184 38.6445 26.1035C37.4609 26.8887 36.5762 27.2812 35.9902 27.2812C34.1973 27.2812 33.3008 26.5137 33.3008 24.9785C33.3008 23.7598 33.6113 22.5293 34.2324 21.2871C34.8535 20.0449 35.6504 18.9375 36.623 17.9648C37.5957 16.9805 38.6445 16.1016 39.7695 15.3281ZM46.4668 14.8711C45.1074 15.1641 43.8301 15.6504 42.6348 16.3301C41.4395 16.998 40.4551 17.7188 39.6816 18.4922C38.9082 19.2539 38.2402 20.0391 37.6777 20.8477C36.623 22.3594 36.0957 23.5312 36.0957 24.3633C36.0957 24.5625 36.1426 24.6621 36.2363 24.6621C36.3418 24.6621 36.5645 24.5566 36.9043 24.3457C37.2559 24.1348 37.748 23.7773 38.3809 23.2734C39.0137 22.7578 39.7168 22.1484 40.4902 21.4453C42.2832 19.793 44.2754 17.6016 46.4668 14.8711ZM62.7969 13.6406C63.6875 13.6406 64.1328 13.9453 64.1328 14.5547C64.1328 14.8828 64.0566 15.123 63.9043 15.2754C63.752 15.4277 63.4238 15.9375 62.9199 16.8047C62.4277 17.6602 61.877 18.7617 61.2676 20.1094C60.6699 21.4453 60.2832 22.5879 60.1074 23.5371C60.0723 23.6543 60.0547 23.8184 60.0547 24.0293C60.0547 24.6738 60.2305 24.9961 60.582 24.9961C60.9336 24.9961 61.3496 24.832 61.8301 24.5039C62.3105 24.1641 62.7383 23.8066 63.1133 23.4316C63.4883 23.0449 63.8516 22.6523 64.2031 22.2539C64.5664 21.8555 64.7832 21.627 64.8535 21.5684C64.9238 21.5098 65.0293 21.4805 65.1699 21.4805C65.3926 21.4805 65.5273 21.6504 65.5742 21.9902C65.6211 22.3301 65.6445 22.6816 65.6445 23.0449C65.6445 23.4082 65.6094 23.6602 65.5391 23.8008C65.1992 24.4688 64.4492 25.2715 63.2891 26.209C62.1406 27.1465 61.0918 27.6152 60.1426 27.6152C59.2051 27.6152 58.5137 27.3281 58.0684 26.7539C57.623 26.1797 57.4004 25.5469 57.4004 24.8555C57.4004 24.1523 57.5176 23.5371 57.752 23.0098C56.7793 24.2754 55.6602 25.3477 54.3945 26.2266C53.1406 27.1055 52.1152 27.5449 51.3184 27.5449C50.5215 27.5449 49.8711 27.3047 49.3672 26.8242C48.7227 26.2266 48.4004 25.4004 48.4004 24.3457C48.4004 23.2793 48.6348 22.2129 49.1035 21.1465C49.584 20.0684 50.2109 19.0898 50.9844 18.2109C51.7578 17.3203 52.6074 16.5117 53.5332 15.7852C55.4785 14.2617 57.2715 13.5 58.9121 13.5C59.5449 13.5 60.0605 13.6055 60.459 13.8164C60.8574 14.0273 61.1094 14.291 61.2148 14.6074C61.4961 14.1855 61.7305 13.9219 61.918 13.8164C62.1172 13.6992 62.4102 13.6406 62.7969 13.6406ZM60.459 15.5918C58.4551 15.5918 56.3809 16.7051 54.2363 18.9316C53.4746 19.7285 52.7715 20.6836 52.127 21.7969C51.4941 22.9102 51.1777 23.6719 51.1777 24.082C51.1777 24.4922 51.2949 24.6973 51.5293 24.6973C51.8574 24.6973 52.7715 24.0527 54.2715 22.7637C55.7715 21.4629 56.7676 20.5078 57.2598 19.8984C57.7988 19.2188 58.8652 17.7832 60.459 15.5918ZM73.2207 24.293C73.2207 24.8086 73.5723 25.0664 74.2754 25.0664C74.6504 25.0664 75.1191 24.8789 75.6816 24.5039C76.2559 24.1289 76.7715 23.7188 77.2285 23.2734C78.4473 22.0664 79.1387 21.4629 79.3027 21.4629C79.6074 21.4629 79.7598 21.9023 79.7598 22.7812C79.7598 23.6602 79.4844 24.2637 78.9336 24.5918C77.2578 26.1035 75.9629 27.0234 75.0488 27.3516C74.5332 27.5273 73.9648 27.6094 73.3438 27.5977C72.7227 27.5859 72.1074 27.3164 71.498 26.7891C70.8887 26.2617 70.584 25.623 70.584 24.873C70.584 24.1113 70.7832 23.25 71.1816 22.2891C71.5801 21.3281 71.9844 20.5078 72.3945 19.8281C72.8164 19.1367 73.332 18.3398 73.9414 17.4375C74.5508 16.5234 74.873 15.9551 74.9082 15.7324L74.873 15.6973C74.4863 15.7324 73.5254 16.4941 71.9902 17.9824C70.4668 19.4707 69.207 20.7656 68.2109 21.8672C67.2148 22.9688 66.0254 24.4395 64.6426 26.2793C64.2559 26.7832 63.9395 27.0352 63.6934 27.0352C63.4473 27.0352 63.1191 26.959 62.709 26.8066C62.2871 26.6426 62.0293 26.5254 61.9355 26.4551C61.8418 26.3848 61.7949 26.2793 61.7949 26.1387C61.7949 25.998 61.8359 25.8281 61.918 25.6289C62 25.418 62.082 25.248 62.1641 25.1191C62.2344 24.9785 62.3574 24.7676 62.5332 24.4863C62.709 24.2051 63.0547 23.6133 63.5703 22.7109C64.0977 21.7969 64.9004 20.4375 65.9785 18.6328C67.0566 16.8281 67.7012 15.7383 67.9121 15.3633C68.3574 14.5898 68.7207 14.0273 69.002 13.6758C69.5293 13.0078 70.4199 12.6738 71.6738 12.6738C71.9551 12.6738 72.0957 12.8496 72.0957 13.2012C72.0957 13.752 71.5859 14.7891 70.5664 16.3125L69.8281 17.4199C71.8555 15.1699 73.5664 13.7461 74.9609 13.1484C75.6406 12.8555 76.25 12.709 76.7891 12.709C77.3398 12.709 77.7734 12.8555 78.0898 13.1484C78.418 13.4414 78.582 13.7695 78.582 14.1328C78.582 14.4844 78.459 14.9121 78.2129 15.416C77.9668 15.9082 77.7148 16.3535 77.457 16.752C77.2109 17.1387 76.8828 17.6309 76.4727 18.2285C76.0625 18.8262 75.8398 19.1543 75.8047 19.2129C75.7695 19.2598 75.6758 19.4004 75.5234 19.6348C75.3828 19.8574 75.2773 20.0215 75.207 20.127C75.1367 20.2324 75.0195 20.4199 74.8555 20.6895C74.6914 20.9473 74.5566 21.1641 74.4512 21.3398C74.3574 21.5156 74.2344 21.7324 74.082 21.9902C73.9414 22.248 73.8242 22.4707 73.7305 22.6582C73.6484 22.8457 73.5605 23.0508 73.4668 23.2734C73.3027 23.6836 73.2207 24.0234 73.2207 24.293ZM89.5508 7.69922C89.5508 8.36719 89.2402 9.04102 88.6191 9.7207C87.998 10.3887 87.3477 10.7227 86.668 10.7227C86 10.7227 85.666 10.3711 85.666 9.66797C85.666 8.96484 85.959 8.29688 86.5449 7.66406C87.1426 7.01953 87.7988 6.69727 88.5137 6.69727C88.8301 6.69727 89.082 6.78516 89.2695 6.96094C89.457 7.13672 89.5508 7.38281 89.5508 7.69922ZM86.7031 23.0449C86.7031 23.3965 86.668 23.6484 86.5977 23.8008C86.0234 24.9727 85.1094 25.9219 83.8555 26.6484C82.6016 27.3633 81.5117 27.7207 80.5859 27.7207C79.6602 27.7207 78.8633 27.4102 78.1953 26.7891C77.5273 26.168 77.1934 25.5352 77.1934 24.8906C77.1934 24.2461 77.5156 23.3086 78.1602 22.0781C78.8047 20.8477 79.4492 19.7109 80.0938 18.668C80.7383 17.625 81.0605 17.0625 81.0605 16.9805C81.0605 16.8867 80.9375 16.7109 80.6914 16.4531C80.457 16.1953 80.3398 16.0078 80.3398 15.8906C80.3398 15.7617 80.5801 15.4395 81.0605 14.9238C81.5527 14.3965 82.1445 13.8809 82.8359 13.377C83.5391 12.8613 84.0723 12.6035 84.4355 12.6035C84.8105 12.6035 85.1445 12.7676 85.4375 13.0957C85.7305 13.4238 85.877 13.7227 85.877 13.9922C85.877 14.2617 84.4824 16.7988 81.6934 21.6035C81.6582 21.6738 81.5586 21.832 81.3945 22.0781C81.2422 22.3125 81.1191 22.5117 81.0254 22.6758C80.9434 22.8281 80.8438 23.0156 80.7266 23.2383C80.4922 23.707 80.375 24.0996 80.375 24.416C80.375 24.8145 80.6445 25.0137 81.1836 25.0137C81.7227 25.0137 82.2793 24.832 82.8535 24.4688C83.4395 24.0938 83.9434 23.6836 84.3652 23.2383C85.4668 22.0547 86.0938 21.4629 86.2461 21.4629C86.5508 21.4629 86.7031 21.9902 86.7031 23.0449ZM96.8457 23.0977C97.4551 22.7109 97.8477 22.4473 98.0234 22.3066C98.1992 22.1543 98.4043 21.9785 98.6387 21.7793C98.873 21.5801 99.0664 21.4805 99.2188 21.4805C99.4531 21.4805 99.5703 21.75 99.5703 22.2891C99.5703 22.8164 99.3066 23.3906 98.7793 24.0117C98.2637 24.6211 97.6191 25.1426 96.8457 25.5762C96.0723 25.998 95.2461 26.3672 94.3672 26.6836C92.6211 27.3281 91.1328 27.6504 89.9023 27.6504C88.6836 27.6504 87.582 27.252 86.5977 26.4551C85.6133 25.6465 85.1211 24.5977 85.1211 23.3086C85.1211 22.0078 85.4434 20.7129 86.0879 19.4238C86.7324 18.123 87.5586 16.9863 88.5664 16.0137C89.5859 15.0293 90.7637 14.2324 92.0996 13.623C93.4473 13.0137 94.7773 12.709 96.0898 12.709C96.7227 12.709 97.291 12.8906 97.7949 13.2539C98.2988 13.6172 98.5508 14.1152 98.5508 14.748C98.5508 15.3809 98.2344 16.1426 97.6016 17.0332C96.9805 17.9121 96.3477 18.3516 95.7031 18.3516C94.9531 18.3516 94.5781 17.9941 94.5781 17.2793C94.5781 17.0918 94.7539 16.7578 95.1055 16.2773C95.457 15.7969 95.6328 15.4746 95.6328 15.3105C95.6328 15.1348 95.5684 15.0469 95.4395 15.0469C94.7949 15.0469 94.1035 15.2695 93.3652 15.7148C92.627 16.1602 91.9531 16.6289 91.3438 17.1211C90.7461 17.6133 90.1777 18.1641 89.6387 18.7734C88.4668 20.0977 87.8809 21.4746 87.8809 22.9043C87.8809 23.4785 88.0625 23.9766 88.4258 24.3984C88.8008 24.8086 89.4219 25.0137 90.2891 25.0137C91.168 25.0137 92.0469 24.9141 92.9258 24.7148C93.8047 24.5039 94.5254 24.2812 95.0879 24.0469C95.6621 23.8008 96.248 23.4844 96.8457 23.0977ZM130.947 3.46289C131.568 3.46289 132.166 3.7207 132.74 4.23633C133.326 4.75195 133.619 5.32617 133.619 5.95898C133.619 6.5918 133.461 7.41797 133.145 8.4375C132.828 9.44531 132.383 10.5234 131.809 11.6719C131.246 12.8086 130.555 13.9922 129.734 15.2227C128.926 16.4414 128.041 17.6309 127.08 18.791C126.131 19.9395 125.082 21.0352 123.934 22.0781C122.797 23.1094 121.643 24.0117 120.471 24.7852C117.916 26.4727 115.42 27.3164 112.982 27.3164C112.139 27.3164 111.389 27.0938 110.732 26.6484C110.076 26.2031 109.566 25.7637 109.203 25.3301C108.371 24.334 107.955 22.957 107.955 21.1992C107.955 19.4297 108.535 17.3555 109.695 14.9766C110.867 12.5977 112.461 10.3535 114.477 8.24414C116.504 6.12305 118.771 4.38867 121.279 3.04102C123.787 1.68164 126.172 1.00195 128.434 1.00195C128.879 1.00195 129.301 1.10156 129.699 1.30078C130.098 1.5 130.297 1.73438 130.297 2.00391C130.297 2.26172 130.232 2.47852 130.104 2.6543C129.975 2.81836 129.852 3 129.734 3.19922C129.617 3.38672 129.518 3.52148 129.436 3.60352C129.822 3.50977 130.326 3.46289 130.947 3.46289ZM124.391 11.584C124.391 11.8184 124.309 11.9355 124.145 11.9355C123.98 11.9355 123.641 11.6543 123.125 11.0918C122.609 10.5176 122.352 10.0371 122.352 9.65039C122.352 8.74805 122.955 7.72266 124.162 6.57422C125.381 5.42578 126.734 4.55273 128.223 3.95508C126.582 4.04883 124.678 4.74609 122.51 6.04688C120.342 7.34766 118.443 8.91797 116.814 10.7578C115.186 12.5859 113.867 14.4961 112.859 16.4883C111.863 18.4805 111.365 20.0977 111.365 21.3398C111.365 22.1016 111.535 22.7578 111.875 23.3086C112.215 23.8477 112.789 24.1172 113.598 24.1172C114.418 24.1172 115.402 23.8359 116.551 23.2734C117.699 22.7109 118.818 21.9727 119.908 21.0586C123.658 17.8828 126.588 14.3555 128.697 10.4766C129.553 8.88281 129.98 7.78125 129.98 7.17188C129.98 6.92578 129.898 6.80273 129.734 6.80273C129.254 6.80273 128.574 7.11328 127.695 7.73438C126.816 8.34375 126.037 9.01758 125.357 9.75586C124.678 10.4941 124.338 11.0273 124.338 11.3555L124.391 11.584ZM138.189 24.293C138.189 24.8086 138.541 25.0664 139.244 25.0664C139.619 25.0664 140.088 24.8789 140.65 24.5039C141.225 24.1289 141.74 23.7188 142.197 23.2734C143.416 22.0664 144.107 21.4629 144.271 21.4629C144.576 21.4629 144.729 21.9023 144.729 22.7812C144.729 23.6602 144.453 24.2637 143.902 24.5918C142.227 26.1035 140.932 27.0234 140.018 27.3516C139.502 27.5273 138.934 27.6094 138.312 27.5977C137.691 27.5859 137.076 27.3164 136.467 26.7891C135.857 26.2617 135.553 25.623 135.553 24.873C135.553 24.1113 135.752 23.25 136.15 22.2891C136.549 21.3281 136.953 20.5078 137.363 19.8281C137.785 19.1367 138.301 18.3398 138.91 17.4375C139.52 16.5234 139.842 15.9551 139.877 15.7324L139.842 15.6973C139.455 15.7324 138.494 16.4941 136.959 17.9824C135.436 19.4707 134.176 20.7656 133.18 21.8672C132.184 22.9688 130.994 24.4395 129.611 26.2793C129.225 26.7832 128.908 27.0352 128.662 27.0352C128.416 27.0352 128.088 26.959 127.678 26.8066C127.256 26.6426 126.998 26.5254 126.904 26.4551C126.811 26.3848 126.764 26.2793 126.764 26.1387C126.764 25.998 126.805 25.8281 126.887 25.6289C126.969 25.418 127.051 25.248 127.133 25.1191C127.203 24.9785 127.326 24.7676 127.502 24.4863C127.678 24.2051 128.023 23.6133 128.539 22.7109C129.066 21.7969 129.869 20.4375 130.947 18.6328C132.025 16.8281 132.67 15.7383 132.881 15.3633C133.326 14.5898 133.689 14.0273 133.971 13.6758C134.498 13.0078 135.389 12.6738 136.643 12.6738C136.924 12.6738 137.064 12.8496 137.064 13.2012C137.064 13.752 136.555 14.7891 135.535 16.3125L134.797 17.4199C136.824 15.1699 138.535 13.7461 139.93 13.1484C140.609 12.8555 141.219 12.709 141.758 12.709C142.309 12.709 142.742 12.8555 143.059 13.1484C143.387 13.4414 143.551 13.7695 143.551 14.1328C143.551 14.4844 143.428 14.9121 143.182 15.416C142.936 15.9082 142.684 16.3535 142.426 16.752C142.18 17.1387 141.852 17.6309 141.441 18.2285C141.031 18.8262 140.809 19.1543 140.773 19.2129C140.738 19.2598 140.645 19.4004 140.492 19.6348C140.352 19.8574 140.246 20.0215 140.176 20.127C140.105 20.2324 139.988 20.4199 139.824 20.6895C139.66 20.9473 139.525 21.1641 139.42 21.3398C139.326 21.5156 139.203 21.7324 139.051 21.9902C138.91 22.248 138.793 22.4707 138.699 22.6582C138.617 22.8457 138.529 23.0508 138.436 23.2734C138.271 23.6836 138.189 24.0234 138.189 24.293ZM157.648 0.615234C158.211 0.615234 158.703 0.785156 159.125 1.125C159.559 1.45313 159.775 1.94531 159.775 2.60156C159.775 3.25781 159.412 4.28906 158.686 5.69531C157.959 7.08984 157.086 8.51953 156.066 9.98438C155.047 11.4375 153.893 12.9844 152.604 14.625C150.564 17.2266 148.607 19.5645 146.732 21.6387C146.721 21.7793 146.668 22.043 146.574 22.4297C146.492 22.8047 146.451 23.1855 146.451 23.5723C146.451 23.959 146.627 24.3105 146.979 24.627C147.342 24.9316 147.787 25.084 148.314 25.084C148.842 25.084 149.404 24.8965 150.002 24.5215C150.611 24.1465 151.139 23.7305 151.584 23.2734C152.756 22.0664 153.482 21.4629 153.764 21.4629C154.045 21.4629 154.186 21.8906 154.186 22.7461V23.0977C154.186 23.5547 154.104 23.8887 153.939 24.0996C152.955 25.3066 151.848 26.209 150.617 26.8066C149.387 27.3926 148.221 27.6855 147.119 27.6855C146.018 27.6855 145.18 27.3516 144.605 26.6836C144.031 26.0039 143.744 25.0781 143.744 23.9062C143.744 21.6211 144.354 18.9375 145.572 15.8555C146.803 12.7617 148.186 10.1309 149.721 7.96289C153.178 3.06445 155.82 0.615234 157.648 0.615234ZM156.857 3.5332C156.857 3.35742 156.799 3.26953 156.682 3.26953C156.271 3.26953 155.193 4.44141 153.447 6.78516C151.701 9.12891 150.436 10.998 149.65 12.3926C148.877 13.7871 148.145 15.5391 147.453 17.6484C148.836 16.0078 150.746 13.4531 153.184 9.98438C155.633 6.50391 156.857 4.35352 156.857 3.5332ZM157.684 32.8359C157.625 32.8945 157.443 33.1875 157.139 33.7148C156.846 34.2539 156.529 34.793 156.189 35.332C155.85 35.8828 155.428 36.4043 154.924 36.8965C154.432 37.3887 154.016 37.6523 153.676 37.6875C153.348 37.7344 153.137 37.7578 153.043 37.7578C151.965 37.7578 151.426 37.2129 151.426 36.123C151.426 34.8457 152.088 33.3516 153.412 31.6406C153.916 30.9961 154.549 30.2988 155.311 29.5488C156.072 28.8105 156.488 28.3887 156.559 28.2832C156.629 28.1895 157.508 26.5488 159.195 23.3613C158.07 24.5918 157.027 25.5938 156.066 26.3672C155.105 27.1289 154.18 27.5566 153.289 27.6504H153.166C152.709 27.6504 152.258 27.498 151.812 27.1934C151.367 26.9004 151.145 26.3789 151.145 25.6289C151.145 24.5156 151.443 23.4375 152.041 22.3945C152.252 22.0312 152.615 21.416 153.131 20.5488C153.658 19.6816 154.145 18.8438 154.59 18.0352C155.012 17.3906 155.445 16.6406 155.891 15.7852C156.336 14.9297 156.676 14.3203 156.91 13.957C157.145 13.582 157.367 13.3945 157.578 13.3945C157.789 13.3945 158.059 13.5293 158.387 13.7988C158.727 14.0566 158.896 14.3672 158.896 14.7305C158.896 15.0938 158.129 16.6699 156.594 19.459C155.059 22.248 154.291 23.8359 154.291 24.2227C154.291 24.3164 154.338 24.3633 154.432 24.3633C154.748 24.3633 155.445 23.918 156.523 23.0273C157.613 22.125 158.814 20.9707 160.127 19.5645C161.592 18.0059 162.74 16.582 163.572 15.293C163.678 15.1289 163.76 15.0059 163.818 14.9238C163.889 14.8301 163.971 14.7129 164.064 14.5723C164.17 14.4199 164.252 14.3027 164.311 14.2207C164.381 14.1387 164.457 14.0449 164.539 13.9395C164.633 13.8223 164.715 13.7344 164.785 13.6758C164.855 13.6172 164.932 13.5586 165.014 13.5C165.143 13.3828 165.283 13.3242 165.436 13.3242C165.6 13.3242 165.84 13.3594 166.156 13.4297C166.484 13.5 166.678 13.5762 166.736 13.6582C166.807 13.7402 166.877 13.8164 166.947 13.8867C167.064 14.0156 167.123 14.1387 167.123 14.2559C167.123 14.3613 167.076 14.5078 166.982 14.6953C166.889 14.8711 166.344 15.7969 165.348 17.4727C162.418 22.418 160.402 26.0273 159.301 28.3008C161.082 26.8008 163.59 24.5801 166.824 21.6387C166.953 21.5332 167.082 21.4805 167.211 21.4805C167.574 21.4805 167.756 22.0371 167.756 23.1504C167.756 23.4785 167.697 23.6953 167.58 23.8008C164.076 26.4961 160.777 29.5078 157.684 32.8359Z" fill="#7EB693"/>
</svg>
