<svg width="71" height="28" viewBox="0 0 71 28" fill="none" xmlns="http://www.w3.org/2000/svg">
<path d="M18.1914 2.02148L19.4746 1.74023C19.8027 1.74023 20.0664 1.81055 20.2656 1.95117C20.4648 2.0918 20.5645 2.22656 20.5645 2.35547C20.5645 2.47266 20.5352 2.64844 20.4766 2.88281C20.418 3.11719 19.9434 5.40234 19.0527 9.73828C18.1621 14.0742 17.5117 17.3086 17.1016 19.4414C19.0938 16.7344 21.4199 13.4004 24.0801 9.43945C26.7402 5.47852 28.293 2.84766 28.7383 1.54688C28.8789 1.13672 29.0605 0.820313 29.2832 0.597656C29.5059 0.375 29.7051 0.246094 29.8809 0.210938C30.0566 0.164062 30.3262 0.140625 30.6895 0.140625C31.0527 0.140625 31.4805 0.222656 31.9727 0.386719C32.4766 0.539063 32.7285 0.796875 32.7285 1.16016C32.7285 1.85156 31.7031 3.84375 29.6523 7.13672C27.6016 10.4297 25.2578 13.9277 22.6211 17.6309C19.9961 21.334 17.7988 24.2637 16.0293 26.4199C15.7129 26.8066 15.3262 27 14.8691 27C14.4238 27 13.9492 26.9238 13.4453 26.7715C12.9531 26.6074 12.707 26.3262 12.707 25.9277C12.707 24.6387 13.8379 18.4453 16.0996 7.34766C14.166 9.85547 11.8164 13.3477 9.05078 17.8242C6.16797 22.4531 4.53906 25.3242 4.16406 26.4375C3.95312 27.1055 3.71289 27.4922 3.44336 27.5977C3.25586 27.6797 3.05664 27.7207 2.8457 27.7207L1.45703 27.8789C1.1875 27.8789 0.941406 27.8027 0.71875 27.6504C0.484375 27.498 0.367188 27.3398 0.367188 27.1758C0.367188 26.707 1.01172 25.3066 2.30078 22.9746C3.60156 20.6426 5.11328 18.1113 6.83594 15.3809C8.57031 12.6387 10.3809 9.97266 12.2676 7.38281C14.1543 4.79297 15.6133 3.05273 16.6445 2.16211C16.8555 1.97461 17.0957 1.88086 17.3652 1.88086L18.1914 2.02148ZM37.4922 13.8516C37.4922 14.625 37.1758 15.3047 36.543 15.8906C35.9219 16.4766 35.2129 16.7695 34.416 16.7695C34.1582 16.7695 33.9883 16.7109 33.9062 16.5938C33.8242 16.4648 33.7832 16.3008 33.7832 16.1016C33.7832 15.9023 33.8066 15.709 33.8535 15.5215C33.4316 15.6621 32.9629 15.8789 32.4473 16.1719C31.9316 16.4648 31.2988 16.8984 30.5488 17.4727C29.7988 18.0469 29.4238 18.4746 29.4238 18.7559C29.4238 18.8496 29.5586 18.8965 29.8281 18.8965C30.1094 18.8965 30.5371 18.8027 31.1113 18.6152C31.6855 18.416 32.084 18.3164 32.3066 18.3164C32.541 18.3164 32.6934 18.3281 32.7637 18.3516C32.916 18.4336 33.0801 18.6152 33.2559 18.8965C33.4316 19.166 33.5195 19.3828 33.5195 19.5469C33.5195 19.6992 33.3672 19.9043 33.0625 20.1621C32.7578 20.4199 32.4121 20.6191 32.0254 20.7598C31.6387 20.8887 31.3809 20.9883 31.252 21.0586C28.7793 22.4414 27.543 23.3906 27.543 23.9062C27.543 24.8203 28.3223 25.2773 29.8809 25.2773C30.877 25.2773 31.8789 24.9609 32.8867 24.3281C33.7422 23.7891 34.5098 23.2441 35.1895 22.6934C35.8809 22.1309 36.3145 21.7852 36.4902 21.6562C36.6777 21.5273 36.8184 21.4629 36.9121 21.4629C37.2168 21.4629 37.3691 21.8027 37.3691 22.4824C37.3691 23.1621 37.3281 23.6133 37.2461 23.8359C37.1641 24.0469 36.9297 24.3105 36.543 24.627C34.0352 26.666 31.6621 27.6855 29.4238 27.6855C28.2285 27.6855 27.2734 27.5215 26.5586 27.1934C25.2461 26.5957 24.5898 25.6816 24.5898 24.4512C24.5898 22.834 25.709 21.6094 27.9473 20.7773C27.502 20.5781 27.2148 20.3262 27.0859 20.0215C26.957 19.7051 26.8926 19.207 26.8926 18.5273C26.8926 17.8359 27.209 17.1094 27.8418 16.3477C28.4863 15.5742 29.2715 14.9414 30.1973 14.4492C32.2598 13.3359 34.0996 12.7793 35.7168 12.7793C36.1035 12.7793 36.4961 12.873 36.8945 13.0605C37.293 13.248 37.4922 13.5117 37.4922 13.8516ZM55.0879 13.9395L54.877 13.0957C54.877 12.6152 55.041 12.2402 55.3691 11.9707C55.709 11.6895 56.1309 11.5488 56.6348 11.5488C57.6191 11.5488 58.1113 12.1758 58.1113 13.4297C58.1113 14.332 57.666 15.5801 56.7754 17.1738C55.8848 18.7559 54.8301 20.291 53.6113 21.7793C52.4043 23.2559 51.1211 24.5449 49.7617 25.6465C48.4023 26.7363 47.3535 27.2812 46.6152 27.2812C45.8887 27.2812 45.373 27.082 45.0684 26.6836C44.7637 26.2852 44.6113 25.9043 44.6113 25.541C44.6113 25.166 44.6289 24.8145 44.6641 24.4863C44.793 23.3379 45.1094 22.2422 45.6133 21.1992C44.3594 22.8398 43.0117 24.3164 41.5703 25.6289C40.1289 26.9297 38.9219 27.5801 37.9492 27.5801C37.4805 27.5801 37.1055 27.4395 36.8242 27.1582C36.543 26.877 36.4023 26.4023 36.4023 25.7344C36.4023 25.0547 36.8066 23.7891 37.6152 21.9375C38.4238 20.0742 39.1973 18.5801 39.9355 17.4551C39.666 17.6191 39.4258 17.7012 39.2148 17.7012C39.0156 17.7012 38.793 17.5898 38.5469 17.3672C38.3125 17.1328 38.1953 16.9512 38.1953 16.8223C38.1953 16.6934 38.2832 16.5059 38.459 16.2598C38.6348 16.0137 39.3086 15.4102 40.4805 14.4492C41.6523 13.4766 42.4551 12.9902 42.8887 12.9902C43.3223 12.9902 43.7324 13.0723 44.1191 13.2363C44.5176 13.4004 44.7168 13.6289 44.7168 13.9219C44.7168 14.2031 43.9023 15.873 42.2734 18.9316C40.6445 21.9902 39.8301 23.6484 39.8301 23.9062C39.8301 23.9414 39.8418 23.959 39.8652 23.959C40.1113 23.959 41.3359 22.7051 43.5391 20.1973C45.7539 17.6895 47.4941 15.627 48.7598 14.0098C48.9355 13.7168 49.1992 13.5703 49.5508 13.5703L49.709 13.5879L50.6758 13.3945C50.8281 13.3945 50.9746 13.4531 51.1152 13.5703C51.2676 13.6875 51.3438 13.793 51.3438 13.8867C51.3438 13.9805 51.1328 14.4023 50.7109 15.1523C50.3008 15.9023 49.627 17.3203 48.6895 19.4062C47.752 21.4922 47.2832 22.957 47.2832 23.8008C47.2832 24.0117 47.3594 24.1172 47.5117 24.1172C47.957 24.1172 48.8828 23.3145 50.2891 21.709C51.707 20.0918 52.8613 18.5449 53.752 17.0684C54.6426 15.5918 55.0879 14.5488 55.0879 13.9395ZM58.6914 23.4844L58.6738 23.7656C58.6738 24.0586 58.7852 24.3105 59.0078 24.5215C59.2305 24.7324 59.4355 24.8379 59.623 24.8379C61.0293 24.8379 62.2715 24.627 63.3496 24.2051C64.4395 23.7832 64.9844 23.3613 64.9844 22.9395C64.9844 22.7402 64.7852 22.5703 64.3867 22.4297C64 22.2773 63.3379 22.0957 62.4004 21.8848C61.4746 21.6621 60.8008 21.4922 60.3789 21.375C59.957 21.2461 59.623 21.1289 59.377 21.0234C59.1309 20.918 58.8789 20.7715 58.6211 20.584C58.0703 20.1973 57.7949 19.623 57.7949 18.8613C57.7949 18.0879 58.0762 17.3262 58.6387 16.5762C59.2129 15.8145 59.9277 15.1641 60.7832 14.625C61.6387 14.0859 62.5586 13.6113 63.543 13.2012C65.4883 12.3926 67.123 11.9883 68.4473 11.9883C69.748 11.9883 70.5508 12.2695 70.8555 12.832C70.9492 13.0312 70.9961 13.2539 70.9961 13.5V13.623C70.9961 14.2441 70.8613 14.7305 70.5918 15.082C70.334 15.4336 69.918 15.75 69.3438 16.0312C68.7812 16.3125 68.3301 16.4531 67.9902 16.4531C67.6621 16.4531 67.4512 16.4297 67.3574 16.3828C67.2754 16.3359 67.2051 16.2773 67.1465 16.207C67.0879 16.125 67.0117 16.0664 66.918 16.0312C66.8359 15.9961 66.7949 15.9082 66.7949 15.7676C66.7949 15.627 66.8535 15.4863 66.9707 15.3457C67.0879 15.1934 67.1699 15.0352 67.2168 14.8711C66.4434 14.9062 65.6348 15.0879 64.791 15.416C63.9473 15.7324 63.2207 16.0898 62.6113 16.4883C62.0137 16.8867 61.5156 17.2676 61.1172 17.6309C60.7188 17.9941 60.5195 18.2637 60.5195 18.4395C60.5195 18.6035 60.7891 18.7383 61.3281 18.8438C63.7539 19.3242 65.3477 19.7402 66.1094 20.0918C66.8711 20.4434 67.3984 20.8418 67.6914 21.2871C67.9844 21.7324 68.1309 22.1367 68.1309 22.5C68.1309 23.25 67.832 23.959 67.2344 24.627C66.6367 25.2949 65.8984 25.8398 65.0195 26.2617C63.1328 27.1875 61.4863 27.6504 60.0801 27.6504C58.6855 27.6504 57.7188 27.4336 57.1797 27C56.6523 26.5781 56.3887 26.0742 56.3887 25.4883C56.3887 24.9023 56.5352 24.3633 56.8281 23.8711C57.1328 23.3672 57.5195 23.1152 57.9883 23.1152C58.457 23.1152 58.6914 23.2383 58.6914 23.4844Z" fill="#7EB693"/>
</svg>
